<mxfile host="app.diagrams.net" agent="Mozilla/5.0 (Windows NT 10.0; Win64; x64) AppleWebKit/537.36 (KHTML, like Gecko) Chrome/135.0.0.0 Safari/537.36" version="26.2.13">
  <diagram name="Страница — 1" id="N5-ZxSQcXmp0OHKJQvgm">
    <mxGraphModel dx="2068" dy="2272" grid="1" gridSize="10" guides="1" tooltips="1" connect="1" arrows="1" fold="1" page="1" pageScale="1" pageWidth="827" pageHeight="1169" math="0" shadow="0">
      <root>
        <mxCell id="0" />
        <mxCell id="1" parent="0" />
        <mxCell id="ayh318rgnSmfKhWwx1QB-1" value="VanillaTilt" style="rounded=0;whiteSpace=wrap;html=1;" parent="1" vertex="1">
          <mxGeometry x="40" y="280" width="160" height="60" as="geometry" />
        </mxCell>
        <mxCell id="ayh318rgnSmfKhWwx1QB-2" value="isSettingTrue" style="rounded=0;whiteSpace=wrap;html=1;dashed=1;dashPattern=8 8;" parent="1" vertex="1">
          <mxGeometry x="280" y="80" width="120" height="60" as="geometry" />
        </mxCell>
        <mxCell id="ayh318rgnSmfKhWwx1QB-4" value="getElementListener" style="rounded=0;whiteSpace=wrap;html=1;" parent="1" vertex="1">
          <mxGeometry x="280" y="160" width="120" height="60" as="geometry" />
        </mxCell>
        <mxCell id="ayh318rgnSmfKhWwx1QB-6" value="addEventListeners" style="rounded=0;whiteSpace=wrap;html=1;" parent="1" vertex="1">
          <mxGeometry x="280" y="240" width="120" height="60" as="geometry" />
        </mxCell>
        <mxCell id="ayh318rgnSmfKhWwx1QB-9" value="removeEventListeners" style="rounded=0;whiteSpace=wrap;html=1;" parent="1" vertex="1">
          <mxGeometry x="280" y="320" width="140" height="60" as="geometry" />
        </mxCell>
        <mxCell id="ayh318rgnSmfKhWwx1QB-11" value="destroy" style="rounded=0;whiteSpace=wrap;html=1;" parent="1" vertex="1">
          <mxGeometry x="280" y="400" width="120" height="60" as="geometry" />
        </mxCell>
        <mxCell id="ayh318rgnSmfKhWwx1QB-13" value="onDeviceOrientation" style="rounded=0;whiteSpace=wrap;html=1;fillColor=#fad9d5;strokeColor=#ae4132;" parent="1" vertex="1">
          <mxGeometry x="280" y="480" width="120" height="60" as="geometry" />
        </mxCell>
        <mxCell id="ayh318rgnSmfKhWwx1QB-16" value="" style="endArrow=classic;html=1;rounded=0;exitX=1;exitY=0.5;exitDx=0;exitDy=0;entryX=0;entryY=0.5;entryDx=0;entryDy=0;" parent="1" source="ayh318rgnSmfKhWwx1QB-1" target="ayh318rgnSmfKhWwx1QB-2" edge="1">
          <mxGeometry width="50" height="50" relative="1" as="geometry">
            <mxPoint x="330" y="330" as="sourcePoint" />
            <mxPoint x="220" y="130" as="targetPoint" />
            <Array as="points">
              <mxPoint x="240" y="310" />
              <mxPoint x="240" y="110" />
            </Array>
          </mxGeometry>
        </mxCell>
        <mxCell id="ayh318rgnSmfKhWwx1QB-17" value="" style="endArrow=classic;html=1;rounded=0;entryX=0;entryY=0.5;entryDx=0;entryDy=0;exitX=1;exitY=0.5;exitDx=0;exitDy=0;" parent="1" source="ayh318rgnSmfKhWwx1QB-1" target="ayh318rgnSmfKhWwx1QB-4" edge="1">
          <mxGeometry width="50" height="50" relative="1" as="geometry">
            <mxPoint x="210" y="330" as="sourcePoint" />
            <mxPoint x="280" y="130" as="targetPoint" />
            <Array as="points">
              <mxPoint x="240" y="310" />
              <mxPoint x="240" y="190" />
            </Array>
          </mxGeometry>
        </mxCell>
        <mxCell id="ayh318rgnSmfKhWwx1QB-18" value="" style="endArrow=classic;html=1;rounded=0;entryX=0;entryY=0.5;entryDx=0;entryDy=0;exitX=1;exitY=0.5;exitDx=0;exitDy=0;" parent="1" source="ayh318rgnSmfKhWwx1QB-1" edge="1">
          <mxGeometry width="50" height="50" relative="1" as="geometry">
            <mxPoint x="210" y="340" as="sourcePoint" />
            <mxPoint x="280" y="280" as="targetPoint" />
            <Array as="points">
              <mxPoint x="240" y="310" />
              <mxPoint x="240" y="280" />
            </Array>
          </mxGeometry>
        </mxCell>
        <mxCell id="ayh318rgnSmfKhWwx1QB-19" value="" style="endArrow=classic;html=1;rounded=0;entryX=0;entryY=0.5;entryDx=0;entryDy=0;" parent="1" target="ayh318rgnSmfKhWwx1QB-13" edge="1">
          <mxGeometry width="50" height="50" relative="1" as="geometry">
            <mxPoint x="240" y="310" as="sourcePoint" />
            <mxPoint x="240" y="650" as="targetPoint" />
            <Array as="points">
              <mxPoint x="240" y="510" />
            </Array>
          </mxGeometry>
        </mxCell>
        <mxCell id="ayh318rgnSmfKhWwx1QB-20" value="" style="endArrow=classic;html=1;rounded=0;entryX=0;entryY=0.5;entryDx=0;entryDy=0;" parent="1" edge="1">
          <mxGeometry width="50" height="50" relative="1" as="geometry">
            <mxPoint x="240" y="230" as="sourcePoint" />
            <mxPoint x="280" y="430" as="targetPoint" />
            <Array as="points">
              <mxPoint x="240" y="430" />
            </Array>
          </mxGeometry>
        </mxCell>
        <mxCell id="ayh318rgnSmfKhWwx1QB-21" value="" style="endArrow=classic;html=1;rounded=0;entryX=0;entryY=0.5;entryDx=0;entryDy=0;" parent="1" edge="1">
          <mxGeometry width="50" height="50" relative="1" as="geometry">
            <mxPoint x="240" y="160" as="sourcePoint" />
            <mxPoint x="280" y="360" as="targetPoint" />
            <Array as="points">
              <mxPoint x="240" y="360" />
            </Array>
          </mxGeometry>
        </mxCell>
        <mxCell id="ayh318rgnSmfKhWwx1QB-22" value="onMouseEnter" style="rounded=0;whiteSpace=wrap;html=1;" parent="1" vertex="1">
          <mxGeometry x="280" y="560" width="120" height="60" as="geometry" />
        </mxCell>
        <mxCell id="ayh318rgnSmfKhWwx1QB-23" value="" style="endArrow=classic;html=1;rounded=0;" parent="1" target="ayh318rgnSmfKhWwx1QB-22" edge="1">
          <mxGeometry width="50" height="50" relative="1" as="geometry">
            <mxPoint x="240" y="390" as="sourcePoint" />
            <mxPoint x="280" y="590" as="targetPoint" />
            <Array as="points">
              <mxPoint x="240" y="590" />
            </Array>
          </mxGeometry>
        </mxCell>
        <mxCell id="ayh318rgnSmfKhWwx1QB-24" value="onMouseMove" style="rounded=0;whiteSpace=wrap;html=1;" parent="1" vertex="1">
          <mxGeometry x="280" y="640" width="120" height="60" as="geometry" />
        </mxCell>
        <mxCell id="ayh318rgnSmfKhWwx1QB-25" value="" style="endArrow=classic;html=1;rounded=0;" parent="1" edge="1">
          <mxGeometry width="50" height="50" relative="1" as="geometry">
            <mxPoint x="240" y="480" as="sourcePoint" />
            <mxPoint x="280" y="680" as="targetPoint" />
            <Array as="points">
              <mxPoint x="240" y="680" />
            </Array>
          </mxGeometry>
        </mxCell>
        <mxCell id="ayh318rgnSmfKhWwx1QB-26" value="onMouseLeave" style="rounded=0;whiteSpace=wrap;html=1;" parent="1" vertex="1">
          <mxGeometry x="280" y="720" width="120" height="60" as="geometry" />
        </mxCell>
        <mxCell id="ayh318rgnSmfKhWwx1QB-27" value="" style="endArrow=classic;html=1;rounded=0;" parent="1" edge="1">
          <mxGeometry width="50" height="50" relative="1" as="geometry">
            <mxPoint x="240" y="550" as="sourcePoint" />
            <mxPoint x="280" y="750" as="targetPoint" />
            <Array as="points">
              <mxPoint x="240" y="750" />
            </Array>
          </mxGeometry>
        </mxCell>
        <mxCell id="ayh318rgnSmfKhWwx1QB-28" value="reset" style="rounded=0;whiteSpace=wrap;html=1;" parent="1" vertex="1">
          <mxGeometry x="280" y="800" width="120" height="60" as="geometry" />
        </mxCell>
        <mxCell id="ayh318rgnSmfKhWwx1QB-29" value="" style="endArrow=classic;html=1;rounded=0;" parent="1" edge="1">
          <mxGeometry width="50" height="50" relative="1" as="geometry">
            <mxPoint x="240" y="630" as="sourcePoint" />
            <mxPoint x="280" y="830" as="targetPoint" />
            <Array as="points">
              <mxPoint x="240" y="830" />
            </Array>
          </mxGeometry>
        </mxCell>
        <mxCell id="ayh318rgnSmfKhWwx1QB-30" value="resetGlare" style="rounded=0;whiteSpace=wrap;html=1;" parent="1" vertex="1">
          <mxGeometry x="280" y="880" width="120" height="60" as="geometry" />
        </mxCell>
        <mxCell id="ayh318rgnSmfKhWwx1QB-31" value="" style="endArrow=classic;html=1;rounded=0;" parent="1" edge="1">
          <mxGeometry width="50" height="50" relative="1" as="geometry">
            <mxPoint x="240" y="710" as="sourcePoint" />
            <mxPoint x="280" y="910" as="targetPoint" />
            <Array as="points">
              <mxPoint x="240" y="910" />
            </Array>
          </mxGeometry>
        </mxCell>
        <mxCell id="ayh318rgnSmfKhWwx1QB-32" value="getValues" style="rounded=0;whiteSpace=wrap;html=1;" parent="1" vertex="1">
          <mxGeometry x="280" y="960" width="120" height="60" as="geometry" />
        </mxCell>
        <mxCell id="ayh318rgnSmfKhWwx1QB-33" value="" style="endArrow=classic;html=1;rounded=0;" parent="1" edge="1">
          <mxGeometry width="50" height="50" relative="1" as="geometry">
            <mxPoint x="240" y="790" as="sourcePoint" />
            <mxPoint x="280" y="990" as="targetPoint" />
            <Array as="points">
              <mxPoint x="240" y="990" />
            </Array>
          </mxGeometry>
        </mxCell>
        <mxCell id="ayh318rgnSmfKhWwx1QB-34" value="updateElementPosition" style="rounded=0;whiteSpace=wrap;html=1;" parent="1" vertex="1">
          <mxGeometry x="280" y="1040" width="150" height="60" as="geometry" />
        </mxCell>
        <mxCell id="ayh318rgnSmfKhWwx1QB-35" value="" style="endArrow=classic;html=1;rounded=0;" parent="1" edge="1">
          <mxGeometry width="50" height="50" relative="1" as="geometry">
            <mxPoint x="240" y="870" as="sourcePoint" />
            <mxPoint x="280" y="1070" as="targetPoint" />
            <Array as="points">
              <mxPoint x="240" y="1070" />
            </Array>
          </mxGeometry>
        </mxCell>
        <mxCell id="ayh318rgnSmfKhWwx1QB-37" value="" style="endArrow=classic;html=1;rounded=0;" parent="1" edge="1">
          <mxGeometry width="50" height="50" relative="1" as="geometry">
            <mxPoint x="240" y="950" as="sourcePoint" />
            <mxPoint x="280" y="1150" as="targetPoint" />
            <Array as="points">
              <mxPoint x="240" y="1150" />
            </Array>
          </mxGeometry>
        </mxCell>
        <mxCell id="ayh318rgnSmfKhWwx1QB-39" value="update" style="rounded=0;whiteSpace=wrap;html=1;" parent="1" vertex="1">
          <mxGeometry x="280" y="1120" width="120" height="60" as="geometry" />
        </mxCell>
        <mxCell id="ayh318rgnSmfKhWwx1QB-40" value="prepareGlare" style="rounded=0;whiteSpace=wrap;html=1;" parent="1" vertex="1">
          <mxGeometry x="280" y="1200" width="120" height="60" as="geometry" />
        </mxCell>
        <mxCell id="ayh318rgnSmfKhWwx1QB-41" value="" style="endArrow=classic;html=1;rounded=0;" parent="1" edge="1">
          <mxGeometry width="50" height="50" relative="1" as="geometry">
            <mxPoint x="240" y="1030" as="sourcePoint" />
            <mxPoint x="280" y="1230" as="targetPoint" />
            <Array as="points">
              <mxPoint x="240" y="1230" />
            </Array>
          </mxGeometry>
        </mxCell>
        <mxCell id="ayh318rgnSmfKhWwx1QB-42" value="updateGlareSize" style="rounded=0;whiteSpace=wrap;html=1;" parent="1" vertex="1">
          <mxGeometry x="280" y="1280" width="120" height="60" as="geometry" />
        </mxCell>
        <mxCell id="ayh318rgnSmfKhWwx1QB-43" value="" style="endArrow=classic;html=1;rounded=0;" parent="1" edge="1">
          <mxGeometry width="50" height="50" relative="1" as="geometry">
            <mxPoint x="240" y="1110" as="sourcePoint" />
            <mxPoint x="280" y="1310" as="targetPoint" />
            <Array as="points">
              <mxPoint x="240" y="1310" />
            </Array>
          </mxGeometry>
        </mxCell>
        <mxCell id="ayh318rgnSmfKhWwx1QB-44" value="updateClientSize" style="rounded=0;whiteSpace=wrap;html=1;" parent="1" vertex="1">
          <mxGeometry x="280" y="1360" width="120" height="60" as="geometry" />
        </mxCell>
        <mxCell id="ayh318rgnSmfKhWwx1QB-45" value="" style="endArrow=classic;html=1;rounded=0;" parent="1" edge="1">
          <mxGeometry width="50" height="50" relative="1" as="geometry">
            <mxPoint x="240" y="1190" as="sourcePoint" />
            <mxPoint x="280" y="1390" as="targetPoint" />
            <Array as="points">
              <mxPoint x="240" y="1390" />
            </Array>
          </mxGeometry>
        </mxCell>
        <mxCell id="ayh318rgnSmfKhWwx1QB-46" value="onWindowResize" style="rounded=0;whiteSpace=wrap;html=1;" parent="1" vertex="1">
          <mxGeometry x="280" y="1440" width="120" height="60" as="geometry" />
        </mxCell>
        <mxCell id="ayh318rgnSmfKhWwx1QB-47" value="" style="endArrow=classic;html=1;rounded=0;" parent="1" edge="1">
          <mxGeometry width="50" height="50" relative="1" as="geometry">
            <mxPoint x="240" y="1270" as="sourcePoint" />
            <mxPoint x="280" y="1470" as="targetPoint" />
            <Array as="points">
              <mxPoint x="240" y="1470" />
            </Array>
          </mxGeometry>
        </mxCell>
        <mxCell id="ayh318rgnSmfKhWwx1QB-48" value="setTransition" style="rounded=0;whiteSpace=wrap;html=1;" parent="1" vertex="1">
          <mxGeometry x="280" y="1520" width="120" height="60" as="geometry" />
        </mxCell>
        <mxCell id="ayh318rgnSmfKhWwx1QB-49" value="" style="endArrow=classic;html=1;rounded=0;" parent="1" edge="1">
          <mxGeometry width="50" height="50" relative="1" as="geometry">
            <mxPoint x="240" y="1350" as="sourcePoint" />
            <mxPoint x="280" y="1550" as="targetPoint" />
            <Array as="points">
              <mxPoint x="240" y="1550" />
            </Array>
          </mxGeometry>
        </mxCell>
        <mxCell id="ayh318rgnSmfKhWwx1QB-50" value="extendSettings" style="rounded=0;whiteSpace=wrap;html=1;" parent="1" vertex="1">
          <mxGeometry x="280" y="1600" width="120" height="60" as="geometry" />
        </mxCell>
        <mxCell id="ayh318rgnSmfKhWwx1QB-51" value="" style="endArrow=classic;html=1;rounded=0;" parent="1" edge="1">
          <mxGeometry width="50" height="50" relative="1" as="geometry">
            <mxPoint x="240" y="1430" as="sourcePoint" />
            <mxPoint x="280" y="1630" as="targetPoint" />
            <Array as="points">
              <mxPoint x="240" y="1630" />
            </Array>
          </mxGeometry>
        </mxCell>
        <mxCell id="ayh318rgnSmfKhWwx1QB-52" value="init" style="rounded=0;whiteSpace=wrap;html=1;dashed=1;dashPattern=8 8;" parent="1" vertex="1">
          <mxGeometry x="280" y="1680" width="120" height="60" as="geometry" />
        </mxCell>
        <mxCell id="ayh318rgnSmfKhWwx1QB-53" value="" style="endArrow=classic;html=1;rounded=0;" parent="1" edge="1">
          <mxGeometry width="50" height="50" relative="1" as="geometry">
            <mxPoint x="240" y="1510" as="sourcePoint" />
            <mxPoint x="280" y="1710" as="targetPoint" />
            <Array as="points">
              <mxPoint x="240" y="1710" />
            </Array>
          </mxGeometry>
        </mxCell>
        <mxCell id="VMCY2TgG7IbbnuBbwzfu-1" value="init" style="rounded=0;whiteSpace=wrap;html=1;dashed=1;dashPattern=8 8;" parent="1" vertex="1">
          <mxGeometry x="600" y="240" width="120" height="60" as="geometry" />
        </mxCell>
        <mxCell id="VMCY2TgG7IbbnuBbwzfu-2" value="" style="endArrow=classic;html=1;rounded=0;exitX=1;exitY=0.5;exitDx=0;exitDy=0;" parent="1" source="VMCY2TgG7IbbnuBbwzfu-1" target="VMCY2TgG7IbbnuBbwzfu-3" edge="1">
          <mxGeometry width="50" height="50" relative="1" as="geometry">
            <mxPoint x="390" y="410" as="sourcePoint" />
            <mxPoint x="810" y="270" as="targetPoint" />
          </mxGeometry>
        </mxCell>
        <mxCell id="VMCY2TgG7IbbnuBbwzfu-3" value="VanillaTilt.constructor()" style="rounded=0;whiteSpace=wrap;html=1;" parent="1" vertex="1">
          <mxGeometry x="810" y="240" width="160" height="60" as="geometry" />
        </mxCell>
        <mxCell id="VMCY2TgG7IbbnuBbwzfu-4" value="getElementListener" style="rounded=0;whiteSpace=wrap;html=1;" parent="1" vertex="1">
          <mxGeometry x="1040" y="410" width="120" height="60" as="geometry" />
        </mxCell>
        <mxCell id="VMCY2TgG7IbbnuBbwzfu-6" value="isSettingTrue" style="rounded=0;whiteSpace=wrap;html=1;dashed=1;dashPattern=8 8;" parent="1" vertex="1">
          <mxGeometry x="1040" y="170" width="120" height="60" as="geometry" />
        </mxCell>
        <mxCell id="VMCY2TgG7IbbnuBbwzfu-7" value="" style="endArrow=classic;html=1;rounded=0;exitX=1;exitY=0.5;exitDx=0;exitDy=0;entryX=0;entryY=0.5;entryDx=0;entryDy=0;" parent="1" target="VMCY2TgG7IbbnuBbwzfu-6" edge="1">
          <mxGeometry width="50" height="50" relative="1" as="geometry">
            <mxPoint x="970" y="270" as="sourcePoint" />
            <mxPoint x="1040" y="120" as="targetPoint" />
            <Array as="points">
              <mxPoint x="1000" y="270" />
              <mxPoint x="1000" y="200" />
            </Array>
          </mxGeometry>
        </mxCell>
        <mxCell id="VMCY2TgG7IbbnuBbwzfu-8" value="prepareGlare" style="rounded=0;whiteSpace=wrap;html=1;" parent="1" vertex="1">
          <mxGeometry x="1040" y="250" width="120" height="60" as="geometry" />
        </mxCell>
        <mxCell id="VMCY2TgG7IbbnuBbwzfu-10" value="updateClientSize" style="rounded=0;whiteSpace=wrap;html=1;" parent="1" vertex="1">
          <mxGeometry x="1040" y="330" width="120" height="60" as="geometry" />
        </mxCell>
        <mxCell id="VMCY2TgG7IbbnuBbwzfu-11" value="" style="endArrow=classic;html=1;rounded=0;entryX=0;entryY=0.5;entryDx=0;entryDy=0;" parent="1" edge="1">
          <mxGeometry width="50" height="50" relative="1" as="geometry">
            <mxPoint x="1000" y="160" as="sourcePoint" />
            <mxPoint x="1040" y="360" as="targetPoint" />
            <Array as="points">
              <mxPoint x="1000" y="360" />
            </Array>
          </mxGeometry>
        </mxCell>
        <mxCell id="VMCY2TgG7IbbnuBbwzfu-12" value="" style="endArrow=classic;html=1;rounded=0;entryX=0;entryY=0.5;entryDx=0;entryDy=0;" parent="1" edge="1">
          <mxGeometry width="50" height="50" relative="1" as="geometry">
            <mxPoint x="1000" y="170" as="sourcePoint" />
            <mxPoint x="1040" y="280" as="targetPoint" />
            <Array as="points">
              <mxPoint x="1000" y="280" />
            </Array>
          </mxGeometry>
        </mxCell>
        <mxCell id="VMCY2TgG7IbbnuBbwzfu-13" value="addEventListeners" style="rounded=0;whiteSpace=wrap;html=1;" parent="1" vertex="1">
          <mxGeometry x="1040" y="40" width="120" height="60" as="geometry" />
        </mxCell>
        <mxCell id="VMCY2TgG7IbbnuBbwzfu-14" value="" style="endArrow=classic;html=1;rounded=0;entryX=0;entryY=0.5;entryDx=0;entryDy=0;" parent="1" edge="1">
          <mxGeometry width="50" height="50" relative="1" as="geometry">
            <mxPoint x="1000" y="240" as="sourcePoint" />
            <mxPoint x="1040" y="440" as="targetPoint" />
            <Array as="points">
              <mxPoint x="1000" y="440" />
            </Array>
          </mxGeometry>
        </mxCell>
        <mxCell id="VMCY2TgG7IbbnuBbwzfu-15" value="reset" style="rounded=0;whiteSpace=wrap;html=1;fillColor=#fff2cc;strokeColor=#d6b656;" parent="1" vertex="1">
          <mxGeometry x="1040" y="490" width="120" height="60" as="geometry" />
        </mxCell>
        <mxCell id="VMCY2TgG7IbbnuBbwzfu-16" value="" style="endArrow=classic;html=1;rounded=0;entryX=0;entryY=0.5;entryDx=0;entryDy=0;" parent="1" edge="1">
          <mxGeometry width="50" height="50" relative="1" as="geometry">
            <mxPoint x="1000" y="320" as="sourcePoint" />
            <mxPoint x="1040" y="520" as="targetPoint" />
            <Array as="points">
              <mxPoint x="1000" y="520" />
            </Array>
          </mxGeometry>
        </mxCell>
        <mxCell id="VMCY2TgG7IbbnuBbwzfu-17" value="updateGlareSize" style="rounded=0;whiteSpace=wrap;html=1;" parent="1" vertex="1">
          <mxGeometry x="1230" y="250" width="120" height="60" as="geometry" />
        </mxCell>
        <mxCell id="VMCY2TgG7IbbnuBbwzfu-18" value="" style="endArrow=classic;html=1;rounded=0;exitX=1;exitY=0.5;exitDx=0;exitDy=0;entryX=0;entryY=0.5;entryDx=0;entryDy=0;" parent="1" source="VMCY2TgG7IbbnuBbwzfu-8" target="VMCY2TgG7IbbnuBbwzfu-17" edge="1">
          <mxGeometry width="50" height="50" relative="1" as="geometry">
            <mxPoint x="930" y="420" as="sourcePoint" />
            <mxPoint x="980" y="370" as="targetPoint" />
          </mxGeometry>
        </mxCell>
        <mxCell id="VMCY2TgG7IbbnuBbwzfu-47" value="destroy" style="rounded=0;whiteSpace=wrap;html=1;" parent="1" vertex="1">
          <mxGeometry x="600" y="760" width="120" height="60" as="geometry" />
        </mxCell>
        <mxCell id="VMCY2TgG7IbbnuBbwzfu-49" value="resetGlare" style="rounded=0;whiteSpace=wrap;html=1;" parent="1" vertex="1">
          <mxGeometry x="790" y="690" width="120" height="60" as="geometry" />
        </mxCell>
        <mxCell id="VMCY2TgG7IbbnuBbwzfu-50" value="" style="endArrow=classic;html=1;rounded=0;exitX=1;exitY=0.5;exitDx=0;exitDy=0;" parent="1" edge="1">
          <mxGeometry width="50" height="50" relative="1" as="geometry">
            <mxPoint x="720" y="790" as="sourcePoint" />
            <mxPoint x="790" y="720" as="targetPoint" />
            <Array as="points">
              <mxPoint x="750" y="790" />
              <mxPoint x="750" y="720" />
            </Array>
          </mxGeometry>
        </mxCell>
        <mxCell id="VMCY2TgG7IbbnuBbwzfu-51" value="removeEventListeners" style="rounded=0;whiteSpace=wrap;html=1;" parent="1" vertex="1">
          <mxGeometry x="790" y="800" width="140" height="60" as="geometry" />
        </mxCell>
        <mxCell id="VMCY2TgG7IbbnuBbwzfu-52" value="" style="endArrow=classic;html=1;rounded=0;entryX=0;entryY=0.5;entryDx=0;entryDy=0;" parent="1" edge="1">
          <mxGeometry width="50" height="50" relative="1" as="geometry">
            <mxPoint x="750" y="720" as="sourcePoint" />
            <mxPoint x="790" y="830" as="targetPoint" />
            <Array as="points">
              <mxPoint x="750" y="830" />
            </Array>
          </mxGeometry>
        </mxCell>
        <mxCell id="VMCY2TgG7IbbnuBbwzfu-66" value="reset" style="rounded=0;whiteSpace=wrap;html=1;" parent="1" vertex="1">
          <mxGeometry x="600" y="1080" width="120" height="60" as="geometry" />
        </mxCell>
        <mxCell id="VMCY2TgG7IbbnuBbwzfu-68" value="onMouseEnter" style="rounded=0;whiteSpace=wrap;html=1;fillColor=#fff2cc;strokeColor=#d6b656;" parent="1" vertex="1">
          <mxGeometry x="790" y="1010" width="120" height="60" as="geometry" />
        </mxCell>
        <mxCell id="VMCY2TgG7IbbnuBbwzfu-69" value="resetGlare" style="rounded=0;whiteSpace=wrap;html=1;" parent="1" vertex="1">
          <mxGeometry x="790" y="930" width="120" height="60" as="geometry" />
        </mxCell>
        <mxCell id="VMCY2TgG7IbbnuBbwzfu-70" value="update" style="rounded=0;whiteSpace=wrap;html=1;" parent="1" vertex="1">
          <mxGeometry x="800" y="1120" width="120" height="60" as="geometry" />
        </mxCell>
        <mxCell id="VMCY2TgG7IbbnuBbwzfu-71" value="" style="endArrow=classic;html=1;rounded=0;exitX=1;exitY=0.5;exitDx=0;exitDy=0;entryX=0;entryY=0.5;entryDx=0;entryDy=0;" parent="1" edge="1">
          <mxGeometry width="50" height="50" relative="1" as="geometry">
            <mxPoint x="720" y="1110" as="sourcePoint" />
            <mxPoint x="790" y="960" as="targetPoint" />
            <Array as="points">
              <mxPoint x="750" y="1110" />
              <mxPoint x="750" y="960" />
            </Array>
          </mxGeometry>
        </mxCell>
        <mxCell id="VMCY2TgG7IbbnuBbwzfu-72" value="" style="endArrow=classic;html=1;rounded=0;exitX=1;exitY=0.5;exitDx=0;exitDy=0;entryX=0;entryY=0.5;entryDx=0;entryDy=0;" parent="1" edge="1">
          <mxGeometry width="50" height="50" relative="1" as="geometry">
            <mxPoint x="720" y="1110" as="sourcePoint" />
            <mxPoint x="790" y="1040" as="targetPoint" />
            <Array as="points">
              <mxPoint x="750" y="1110" />
              <mxPoint x="750" y="1040" />
            </Array>
          </mxGeometry>
        </mxCell>
        <mxCell id="VMCY2TgG7IbbnuBbwzfu-73" value="" style="endArrow=classic;html=1;rounded=0;" parent="1" edge="1">
          <mxGeometry width="50" height="50" relative="1" as="geometry">
            <mxPoint x="750" y="1100" as="sourcePoint" />
            <mxPoint x="800" y="1150" as="targetPoint" />
            <Array as="points">
              <mxPoint x="750" y="1150" />
            </Array>
          </mxGeometry>
        </mxCell>
        <mxCell id="VMCY2TgG7IbbnuBbwzfu-74" value="getValues" style="rounded=0;whiteSpace=wrap;html=1;" parent="1" vertex="1">
          <mxGeometry x="990" y="1120" width="120" height="60" as="geometry" />
        </mxCell>
        <mxCell id="VMCY2TgG7IbbnuBbwzfu-75" value="" style="endArrow=classic;html=1;rounded=0;entryX=0;entryY=0.5;entryDx=0;entryDy=0;" parent="1" target="VMCY2TgG7IbbnuBbwzfu-74" edge="1">
          <mxGeometry width="50" height="50" relative="1" as="geometry">
            <mxPoint x="920" y="1150" as="sourcePoint" />
            <mxPoint x="970" y="1100" as="targetPoint" />
          </mxGeometry>
        </mxCell>
        <mxCell id="VMCY2TgG7IbbnuBbwzfu-80" value="" style="endArrow=classic;html=1;rounded=0;exitX=1;exitY=0.5;exitDx=0;exitDy=0;entryX=0;entryY=0.5;entryDx=0;entryDy=0;" parent="1" edge="1">
          <mxGeometry width="50" height="50" relative="1" as="geometry">
            <mxPoint x="960" y="270" as="sourcePoint" />
            <mxPoint x="1040" y="70" as="targetPoint" />
            <Array as="points">
              <mxPoint x="1000" y="270" />
              <mxPoint x="1000" y="70" />
            </Array>
          </mxGeometry>
        </mxCell>
        <mxCell id="um891HU0fh0emwV5Nlyu-1" value="" style="endArrow=classic;html=1;rounded=0;exitX=1;exitY=0.5;exitDx=0;exitDy=0;" edge="1" parent="1">
          <mxGeometry width="50" height="50" relative="1" as="geometry">
            <mxPoint x="1161" y="70" as="sourcePoint" />
            <mxPoint x="1240" y="-40" as="targetPoint" />
            <Array as="points">
              <mxPoint x="1201" y="70" />
              <mxPoint x="1201" y="-40" />
            </Array>
          </mxGeometry>
        </mxCell>
        <mxCell id="um891HU0fh0emwV5Nlyu-2" value="onMouseEnter" style="rounded=0;whiteSpace=wrap;html=1;fillColor=#fff2cc;strokeColor=#d6b656;" vertex="1" parent="1">
          <mxGeometry x="1241" y="-70" width="120" height="60" as="geometry" />
        </mxCell>
        <mxCell id="um891HU0fh0emwV5Nlyu-3" value="" style="endArrow=classic;html=1;rounded=0;exitX=1;exitY=0.5;exitDx=0;exitDy=0;" edge="1" parent="1">
          <mxGeometry width="50" height="50" relative="1" as="geometry">
            <mxPoint x="1161" y="70" as="sourcePoint" />
            <mxPoint x="1241" y="40" as="targetPoint" />
            <Array as="points">
              <mxPoint x="1201" y="70" />
              <mxPoint x="1201" y="40" />
            </Array>
          </mxGeometry>
        </mxCell>
        <mxCell id="um891HU0fh0emwV5Nlyu-4" value="onMouseMove" style="rounded=0;whiteSpace=wrap;html=1;" vertex="1" parent="1">
          <mxGeometry x="1241" y="10" width="120" height="60" as="geometry" />
        </mxCell>
        <mxCell id="um891HU0fh0emwV5Nlyu-5" value="" style="endArrow=classic;html=1;rounded=0;entryX=0;entryY=0.5;entryDx=0;entryDy=0;" edge="1" parent="1">
          <mxGeometry width="50" height="50" relative="1" as="geometry">
            <mxPoint x="1201" as="sourcePoint" />
            <mxPoint x="1241" y="110" as="targetPoint" />
            <Array as="points">
              <mxPoint x="1201" y="110" />
            </Array>
          </mxGeometry>
        </mxCell>
        <mxCell id="um891HU0fh0emwV5Nlyu-6" value="onMouseLeave" style="rounded=0;whiteSpace=wrap;html=1;fillColor=#fff2cc;strokeColor=#d6b656;" vertex="1" parent="1">
          <mxGeometry x="1241" y="90" width="120" height="60" as="geometry" />
        </mxCell>
        <mxCell id="um891HU0fh0emwV5Nlyu-13" value="onMouseEnter" style="rounded=0;whiteSpace=wrap;html=1;" vertex="1" parent="1">
          <mxGeometry x="600" y="1295" width="120" height="60" as="geometry" />
        </mxCell>
        <mxCell id="um891HU0fh0emwV5Nlyu-15" value="updateElementPosition" style="rounded=0;whiteSpace=wrap;html=1;" vertex="1" parent="1">
          <mxGeometry x="790" y="1225" width="150" height="60" as="geometry" />
        </mxCell>
        <mxCell id="um891HU0fh0emwV5Nlyu-16" value="" style="endArrow=classic;html=1;rounded=0;exitX=1;exitY=0.5;exitDx=0;exitDy=0;" edge="1" parent="1">
          <mxGeometry width="50" height="50" relative="1" as="geometry">
            <mxPoint x="720" y="1325" as="sourcePoint" />
            <mxPoint x="790" y="1255" as="targetPoint" />
            <Array as="points">
              <mxPoint x="750" y="1325" />
              <mxPoint x="750" y="1255" />
            </Array>
          </mxGeometry>
        </mxCell>
        <mxCell id="um891HU0fh0emwV5Nlyu-17" value="setTransition" style="rounded=0;whiteSpace=wrap;html=1;" vertex="1" parent="1">
          <mxGeometry x="790" y="1335" width="120" height="60" as="geometry" />
        </mxCell>
        <mxCell id="um891HU0fh0emwV5Nlyu-18" value="" style="endArrow=classic;html=1;rounded=0;entryX=0;entryY=0.5;entryDx=0;entryDy=0;" edge="1" parent="1">
          <mxGeometry width="50" height="50" relative="1" as="geometry">
            <mxPoint x="750" y="1265" as="sourcePoint" />
            <mxPoint x="790" y="1375" as="targetPoint" />
            <Array as="points">
              <mxPoint x="750" y="1375" />
            </Array>
          </mxGeometry>
        </mxCell>
        <mxCell id="um891HU0fh0emwV5Nlyu-19" value="onMouseLeave" style="rounded=0;whiteSpace=wrap;html=1;" vertex="1" parent="1">
          <mxGeometry x="600" y="1430" width="120" height="60" as="geometry" />
        </mxCell>
        <mxCell id="um891HU0fh0emwV5Nlyu-20" value="setTransition" style="rounded=0;whiteSpace=wrap;html=1;" vertex="1" parent="1">
          <mxGeometry x="760" y="1430" width="120" height="60" as="geometry" />
        </mxCell>
        <mxCell id="um891HU0fh0emwV5Nlyu-21" value="" style="endArrow=classic;html=1;rounded=0;exitX=1;exitY=0.5;exitDx=0;exitDy=0;entryX=0;entryY=0.5;entryDx=0;entryDy=0;" edge="1" parent="1" source="um891HU0fh0emwV5Nlyu-19" target="um891HU0fh0emwV5Nlyu-20">
          <mxGeometry width="50" height="50" relative="1" as="geometry">
            <mxPoint x="800" y="1220" as="sourcePoint" />
            <mxPoint x="850" y="1170" as="targetPoint" />
          </mxGeometry>
        </mxCell>
        <mxCell id="um891HU0fh0emwV5Nlyu-22" value="onWindowResize" style="rounded=0;whiteSpace=wrap;html=1;" vertex="1" parent="1">
          <mxGeometry x="600" y="1610" width="120" height="60" as="geometry" />
        </mxCell>
        <mxCell id="um891HU0fh0emwV5Nlyu-23" value="" style="endArrow=classic;html=1;rounded=0;exitX=1;exitY=0.5;exitDx=0;exitDy=0;" edge="1" parent="1">
          <mxGeometry width="50" height="50" relative="1" as="geometry">
            <mxPoint x="720" y="1640" as="sourcePoint" />
            <mxPoint x="790" y="1570" as="targetPoint" />
            <Array as="points">
              <mxPoint x="750" y="1640" />
              <mxPoint x="750" y="1570" />
            </Array>
          </mxGeometry>
        </mxCell>
        <mxCell id="um891HU0fh0emwV5Nlyu-24" value="" style="endArrow=classic;html=1;rounded=0;entryX=0;entryY=0.5;entryDx=0;entryDy=0;" edge="1" parent="1">
          <mxGeometry width="50" height="50" relative="1" as="geometry">
            <mxPoint x="750" y="1600" as="sourcePoint" />
            <mxPoint x="790" y="1710" as="targetPoint" />
            <Array as="points">
              <mxPoint x="750" y="1710" />
            </Array>
          </mxGeometry>
        </mxCell>
        <mxCell id="um891HU0fh0emwV5Nlyu-25" value="updateGlareSize" style="rounded=0;whiteSpace=wrap;html=1;" vertex="1" parent="1">
          <mxGeometry x="790" y="1540" width="120" height="60" as="geometry" />
        </mxCell>
        <mxCell id="um891HU0fh0emwV5Nlyu-26" value="updateClientSize" style="rounded=0;whiteSpace=wrap;html=1;" vertex="1" parent="1">
          <mxGeometry x="790" y="1680" width="120" height="60" as="geometry" />
        </mxCell>
      </root>
    </mxGraphModel>
  </diagram>
</mxfile>
